<svg xmlns="http://www.w3.org/2000/svg" viewBox="0 0 100 100">
  <!-- Falcon icon simplified for favicon -->
  <circle cx="50" cy="50" r="48" fill="#07162e"/>
  <!-- Falcon -->
  <g transform="translate(25, 20)">
    <path d="M25 60 C28 48 38 35 45 28 C48 25 52 24 54 26 C56 28 55 33 52 37 C49 41 43 48 38 58 L25 60Z" fill="#d13e48"/>
    <path d="M45 28 C47 22 49 18 50 15 C51 12 53 11 54 13 C55 15 55 18 54 21 C53 24 51 27 49 30 L45 28Z" fill="#d13e48"/>
    <path d="M50 15 C51 13 54 11 55 13 C56 15 55 18 53 20 C52 19 51 17 50 15Z" fill="#07162e"/>
    <circle cx="53" cy="16" r="1.5" fill="#07162e"/>
  </g>
  <!-- Falcon small accent -->
  <circle cx="75" cy="25" r="3" fill="#d13e48" opacity="0.7"/>
  <circle cx="80" cy="32" r="2" fill="#d13e48" opacity="0.5"/>
</svg>
